<?xml version="1.0" encoding="UTF-8" standalone="no"?>
<!DOCTYPE svg PUBLIC "-//W3C//DTD SVG 1.1//EN" "http://www.w3.org/Graphics/SVG/1.1/DTD/svg11.dtd">
<!-- Created with Inkscape (http://www.inkscape.org/) -->
<svg
   xmlns:svg="http://www.w3.org/2000/svg"
   xmlns:xlink="http://www.w3.org/1999/xlink"
   xmlns="http://www.w3.org/2000/svg"
   version="1.1"
   width="400"
   height="400"
   id="svg2649">
  <defs
     id="defs2696" />
  <title
     id="title2651">generated by pstoedit version:3.45 from L:/svg/cern.eps</title>
  <g
     id="g3747">
    <path
       d="M 9.999998,9.999998 C 9.999998,9.999998 390,9.999998 390,9.999998 C 390,9.999998 390,390 390,390 C 390,390 9.999998,390 9.999998,390 C 9.999998,390 9.999998,9.999998 9.999998,9.999998 z"
       id="path2797"
       style="fill:#000000;fill-opacity:1;fill-rule:nonzero;stroke-width:0;stroke-linecap:butt;stroke-linejoin:miter;stroke-miterlimit:2.61310005" />
    <path
       d="M 24.849129,25.740524 C 24.849105,25.7405 24.849129,374.2595 24.849129,374.2595 C 24.849105,374.25945 375.15089,374.2595 375.15089,374.2595 C 375.15089,374.25945 375.15089,25.740524 375.15089,25.740524 C 375.15089,25.7405 24.849129,25.740524 24.849129,25.740524 z M 30.703548,31.597362 C 30.703524,31.597339 369.29648,31.597362 369.29648,31.597362 C 369.29648,31.597339 369.29648,57.322971 369.29648,57.322971 C 369.29648,57.323018 166.76321,57.322971 166.76321,57.322971 C 100.70642,57.323018 47.081101,110.92357 47.081101,176.98041 C 47.081124,186.74757 48.276054,196.49747 50.638216,205.96806 C 50.63824,205.96801 76.204983,308.35153 76.204983,308.35153 C 76.205007,308.35153 92.878962,299.30679 92.878962,299.30679 C 92.878962,299.30679 83.912067,263.35025 83.912067,263.35025 C 106.19953,284.72074 135.8884,296.63785 166.76321,296.63785 C 176.44333,296.63792 186.04954,295.47835 195.44246,293.1534 C 195.44246,293.15343 122.81802,368.4768 122.81802,368.4768 C 122.81802,368.47682 30.703548,368.4768 30.703548,368.4768 C 30.703524,368.47682 30.703548,31.597362 30.703548,31.597362 z M 231.38414,76.227957 C 231.38412,76.227886 369.29648,76.227957 369.29648,76.227957 C 369.29648,76.227886 369.29648,368.4768 369.29648,368.4768 C 369.29648,368.47682 328.61197,368.4768 328.61197,368.4768 C 328.61197,368.47682 283.9257,152.66341 283.9257,152.66341 C 277.40433,121.12722 258.48936,93.612834 231.38414,76.227957 z M 166.83732,76.376231 C 222.6952,76.376208 267.99279,121.72032 267.99279,177.57351 C 267.99277,233.42672 222.69518,278.77079 166.83732,278.77079 C 110.98873,278.77072 65.607744,233.4267 65.607744,177.57351 C 65.607767,121.72035 110.98871,76.376231 166.83732,76.376231 z M 209.52271,92.01918 C 169.81332,93.292181 133.18338,114.22912 111.92435,147.99277 C 111.92437,147.9927 127.48673,147.99277 127.48673,147.99277 C 147.69017,120.8312 179.53812,104.84492 213.37625,104.84492 C 221.34416,104.84487 229.25225,105.6794 237.01624,107.43972 C 231.07823,101.48023 224.39797,96.365993 217.15568,92.093318 C 215.87749,92.045894 214.64495,92.01918 213.37625,92.01918 C 212.08924,92.01918 210.80365,91.978114 209.52271,92.01918 z M 341.87704,99.803586 C 341.87704,99.803563 328.16733,177.3511 328.16733,177.3511 C 318.18132,144.09014 294.2366,116.80947 262.58301,102.54666 C 268.16054,109.68288 272.94845,117.48561 276.81147,125.67747 C 304.22263,145.84279 320.38614,177.78584 320.38614,211.8249 C 320.38611,229.07924 316.2172,246.12076 308.23266,261.42268 C 308.23264,261.42266 312.0121,279.88285 312.0121,279.88285 C 321.77519,265.722 328.36119,249.66334 331.35391,232.73159 C 331.35391,232.73159 354.9198,99.803586 354.9198,99.803586 C 354.9198,99.803586 341.87704,99.803586 341.87704,99.803586 z M 93.620028,207.15425 C 93.555027,208.72954 93.471815,210.24963 93.471815,211.8249 C 93.471838,225.00348 95.657899,238.13411 99.919086,250.59865 C 106.12533,256.28053 113.0082,261.12673 120.44661,265.05541 C 111.16491,248.85668 106.29225,230.48849 106.29225,211.8249 C 106.29223,210.24958 106.36648,208.72952 106.44046,207.15425 C 106.44044,207.15428 93.620028,207.15425 93.620028,207.15425 z M 278.73824,219.16448 C 278.73822,219.16441 309.71479,368.4768 309.71479,368.4768 C 309.71477,368.47682 147.86604,368.4768 147.86604,368.4768 C 147.86606,368.47682 252.72684,260.23649 252.72684,260.23649 C 264.11909,248.47657 272.9686,234.49249 278.73824,219.16448 z M 290.81762,285.73968 C 270.61559,306.91329 242.63945,318.87901 213.37625,318.87901 C 208.55989,318.87901 203.69603,318.56289 198.92547,317.91523 C 198.92544,317.91516 188.25412,329.03581 188.25412,329.03581 C 196.51706,330.80568 204.92881,331.70475 213.37625,331.70475 C 243.14928,331.70482 271.7995,320.64763 293.85598,300.64126 C 293.85596,300.64128 290.81762,285.73968 290.81762,285.73968 z M 123.26266,290.92929 C 134.86025,304.13404 149.2462,314.6526 165.35519,321.69623 C 165.35519,321.69625 174.91494,311.76184 174.91494,311.76184 C 165.83673,308.26968 157.30544,303.5504 149.49638,297.74991 C 140.53862,296.46163 131.72005,294.16286 123.26266,290.92929 z"
       id="rect2720"
       style="fill:#ffffff;fill-opacity:1;fill-rule:evenodd;stroke:none;stroke-width:0;stroke-linecap:round;stroke-linejoin:miter;marker:none;marker-start:none;marker-mid:none;marker-end:none;stroke-miterlimit:4;stroke-dasharray:none;stroke-dashoffset:0;stroke-opacity:1;visibility:visible;display:inline;overflow:visible;enable-background:accumulate" />
    <g
       transform="matrix(2.3714103,0,0,2.3723904,-27.655389,-27.749478)"
       id="g3725">
      <path
         d="M 64.32703,79.14032 C 64.04973,79.14032 63.71763,79.08632 63.44033,79.19932 C 63.49113,81.19132 63.32703,83.18732 63.49113,85.18332 C 66.04183,85.12932 68.59263,85.29332 71.14343,85.07432 C 71.19813,85.51532 71.08873,85.90632 71.19813,86.34732 C 68.59263,86.18332 66.04183,86.18332 63.44033,86.29332 C 63.49113,88.61732 63.32703,90.94932 63.49113,93.27732 C 66.31923,93.27732 69.14733,93.27732 71.97543,93.00032 C 71.86613,93.44532 71.86613,93.94132 71.97543,94.38732 C 68.37393,94.38732 64.76843,94.38732 61.16683,94.38732 C 61.16683,88.95332 61.16683,83.46532 61.16683,78.03532 C 64.71373,78.09032 68.26063,77.92232 71.80753,78.09032 C 71.69813,78.53132 71.75283,79.03132 71.80753,79.47632 C 69.31533,79.03132 66.82313,79.14032 64.32703,79.14032 z"
         id="path2681"
         style="fill:#ffffff;fill-rule:nonzero;stroke-width:0;stroke-linecap:butt;stroke-linejoin:miter;stroke-miterlimit:2.61310005" />
      <path
         d="M 82.89343,84.90632 C 83.62003,84.52332 84.22543,83.96532 84.55753,83.18732 C 85.00283,81.96932 84.83483,80.52732 83.72543,79.64032 C 83.00283,79.08632 82.12003,78.92232 81.28403,78.92232 C 79.79183,78.80832 78.29183,78.75432 76.79973,78.97232 C 76.85433,81.19132 76.68643,83.35532 76.85433,85.57432 C 78.84653,85.51532 81.01063,85.90632 82.89343,84.90632 z M 77.46373,86.40232 C 77.29573,86.40232 76.96373,86.34732 76.96373,86.46132 C 76.79973,89.12132 76.90903,91.78132 76.90903,94.44132 C 76.13173,94.38732 75.40903,94.38732 74.63563,94.44132 C 74.63563,88.95332 74.63563,83.52332 74.63563,78.03532 C 77.68253,78.14432 80.62003,77.81232 83.72543,78.25832 C 84.88953,78.42232 86.10823,78.80832 86.77233,79.86332 C 87.54973,81.08232 87.38563,82.58232 86.60823,83.80132 C 85.44423,85.40632 83.61613,85.84732 81.83873,86.29332 C 84.22543,89.06632 86.60823,91.78132 89.04573,94.44132 C 88.04973,94.38732 86.99503,94.38732 85.99893,94.44132 C 83.78013,91.66832 81.45203,88.95332 79.01453,86.40232 C 78.51453,86.40232 77.95983,86.40232 77.46373,86.40232 z"
         id="path2685"
         style="fill:#ffffff;fill-rule:nonzero;stroke-width:0;stroke-linecap:butt;stroke-linejoin:miter;stroke-miterlimit:2.61310005" />
      <path
         d="M 92.81533,82.02332 C 92.62003,81.82832 92.37393,81.35932 92.04183,81.58232 C 92.04183,85.84732 92.04183,90.17232 92.04183,94.44132 C 91.54183,94.38732 91.09653,94.32832 90.60043,94.44132 C 90.60043,88.95332 90.60043,83.52332 90.60043,78.03532 C 90.92863,78.03532 91.31923,77.92232 91.48723,78.09032 C 96.03013,82.13732 99.85443,86.23832 104.23743,90.39432 C 104.29143,90.39432 104.51043,90.44932 104.51043,90.34032 C 104.56543,86.23832 104.51043,82.18732 104.51043,78.09032 C 105.01043,78.14432 105.45643,78.14432 105.95243,78.09032 C 105.95243,83.52332 106.12043,89.00832 105.84243,94.44132 C 105.84243,94.44132 105.34643,94.55132 105.22943,94.38732 C 101.01843,90.17232 97.03013,86.23832 92.81533,82.02332 z"
         id="path2689"
         style="fill:#ffffff;fill-rule:nonzero;stroke-width:0;stroke-linecap:butt;stroke-linejoin:miter;stroke-miterlimit:2.61310005" />
      <path
         d="M 57.33873,79.86332 C 54.35043,77.72632 50.13563,78.09032 47.69813,80.85932 C 45.92473,82.91432 45.53793,85.62932 46.08873,88.28932 C 46.53403,90.67232 48.08483,92.55832 50.30363,93.38732 C 53.13173,94.44132 56.28793,93.66432 58.61613,91.89432 C 58.61613,92.39032 58.50673,92.89032 58.50673,93.38732 C 56.39733,94.55132 53.95983,94.82832 51.57703,94.71932 C 48.75283,94.55132 45.92473,93.33232 44.42473,90.78132 C 42.93253,88.12132 42.76453,84.85132 44.31533,82.13732 C 47.25283,77.03532 54.12783,76.81232 59.00673,78.80832 C 58.72933,79.36732 58.61613,80.03132 58.45203,80.64032 C 58.00673,80.52732 57.72933,80.14032 57.33873,79.86332 z"
         id="path2693"
         style="fill:#ffffff;fill-rule:nonzero;stroke-width:0;stroke-linecap:butt;stroke-linejoin:miter;stroke-miterlimit:2.61310005" />
    </g>
  </g>
</svg>
